<svg width="360" height="400" viewBox="0 0 360 400" fill="none" xmlns="http://www.w3.org/2000/svg">
<path fill-rule="evenodd" clip-rule="evenodd" d="M350.48 220.359C345.357 220.863 340.235 221.366 335.113 221.869C310.583 223.746 286.062 227.666 261.719 230.018C261.112 229.03 259.926 229.193 259.206 229.879C256.777 229.666 254.054 227.807 251.854 229.741C251.783 229.731 251.711 229.719 251.639 229.712C247.721 222.182 245.013 214.151 242.385 206.109C240.707 201.165 238.45 196.378 234.279 193.058C227.161 188.11 210.852 178.077 202.494 178.499C202.355 177 201.657 175.456 200.512 174.458C203.037 170.148 192.942 167.335 192.23 167.835C192.687 153.435 185.923 140.93 171.008 138.063C157.646 135.275 138.641 134.806 131.455 148.79C130.665 148.701 122.59 148.658 121.809 148.746C120.594 147.205 107.254 161.804 112.722 166.886C63.8408 188.54 36.047 185.956 22.5175 246.829C20.6885 252.548 20.5552 258.805 18.6238 264.396C11.7525 280.464 6.1791 297.573 4.79204 315.056C1.44198 315.915 1.05671 321.83 4.9371 322.686C6.41931 323.013 7.65879 323.46 8.73957 324.307C7.8947 338.634 11.355 371.362 13.5352 371.261C17.9808 385.429 37.8103 389.428 51.8489 384.449C49.4288 389.008 51.8489 391.875 51.8489 394.311C102.364 396.225 157.596 395.123 208.097 397.747C214.557 397.655 221.351 399.336 227.723 398.369C231.609 397.436 231.615 391.318 227.674 390.561L244.896 386.815C244.511 386.67 251.995 381.685 257.651 372.37C262.916 361.95 259.333 349.371 261.719 338.036C280.351 336.51 299.292 335.858 317.72 332.698C320.233 340.227 331.11 331.223 334.567 327.601C334.563 327.595 334.559 327.59 334.554 327.584C336.228 327.126 337.569 325.555 337.614 323.696C338.788 322.017 339.034 319.651 337.909 318.028C343.066 288.226 350.929 257.798 353.771 227.715C354.776 227.493 355.722 227.052 356.524 226.372L356.459 226.307C357.818 224.79 358.082 222.171 355.817 220.882C353.989 219.841 352.463 220.164 350.48 220.359Z" fill="white"/>
<path fill-rule="evenodd" clip-rule="evenodd" d="M132.386 145.542C133.908 141.712 139.053 143.201 138.479 147.224C138.136 149.635 136.818 152.18 135.634 154.293C134.67 156.012 133.57 157.69 132.079 158.979C134.733 161.459 137.488 163.849 140.313 166.117C143.396 168.593 146.638 170.874 149.988 172.971C152.926 174.81 155.997 176.44 158.767 178.538C161.342 180.489 163.688 182.835 164.881 185.898C166.153 189.16 165.601 192.528 164.664 195.788L164.557 196.156C163.6 199.385 161.944 203.278 164.24 206.32C165.409 207.869 167.109 208.966 168.576 210.204C169.88 211.305 171.105 212.502 172.227 213.787C174.675 216.59 176.667 219.743 177.923 223.257L178.035 223.576C179.112 226.687 179.9 230.497 178.444 233.551C178.027 234.426 176.68 234.142 176.446 233.289C175.918 231.358 175.945 229.336 175.502 227.378C175.041 225.341 174.273 223.408 173.27 221.579C171.331 218.04 168.704 215.018 165.6 212.463L164.671 211.706C162.249 209.716 160.025 207.605 159.533 204.312C159.007 200.789 160.417 197.432 161.324 194.098C161.955 191.774 162.161 189.546 161.479 187.446C160.645 188.809 159.507 190.103 158.607 191.257C156.815 193.556 155.005 195.841 153.201 198.131C151.351 200.478 149.546 202.863 147.827 205.31C147.059 206.404 146.298 207.505 145.54 208.607C144.97 209.435 144.176 210.263 143.554 211.108C143.705 211.56 143.694 212.081 143.42 212.451C140.125 216.908 135.438 207.607 134.216 205.257C131.726 200.472 129.874 195.387 127.376 190.603C124.788 185.643 121.841 180.815 118.556 176.287C116.57 173.548 114.343 170.976 112.525 168.15C108.243 172.038 102.609 174.644 97.4337 177.008C91.7474 179.604 85.8399 181.726 80.0099 183.978L78.2878 184.648C68.2424 188.574 57.9516 192.887 49.6021 199.86C39.7905 208.054 33.9861 219.475 29.6648 231.302C24.6903 244.918 20.575 258.901 16.7387 272.875C14.7755 280.025 12.9128 287.207 11.1616 294.412C9.61848 300.76 8.33935 307.171 6.55302 313.453C10.1759 313.325 14.3078 314.729 17.4008 315.135C31.4974 316.983 45.4042 319.928 58.7131 325.028C60.357 325.658 60.8326 327.302 60.4746 328.634C61.4227 328.366 62.37 328.095 63.3181 327.828C62.2794 326.235 62.7751 323.385 62.8568 321.619L62.8618 321.497C62.9457 319.144 63.2008 316.787 63.3661 314.438C63.681 309.959 64.0909 305.513 64.636 301.06L64.7751 299.946C65.3928 295.101 65.8494 290.228 66.5234 285.391L66.603 284.838C66.2798 283.6 65.9036 282.378 65.5086 281.161C64.4562 277.919 62.9708 274.868 61.6691 271.728C61.5156 271.359 62.0414 271.146 62.2871 271.368C64.4917 273.354 66.2429 275.873 67.6497 278.508C67.6741 278.384 67.6956 278.259 67.7211 278.135L67.8816 277.344C68.2775 275.414 68.759 273.384 69.9411 271.819C70.067 271.653 70.3159 271.618 70.435 271.819C71.5664 273.736 71.693 276.164 71.867 278.345C72.0639 280.813 72.0886 283.312 72.0538 285.787C71.986 290.622 71.6456 295.472 71.3745 300.3C71.1084 305.044 70.586 309.729 69.9127 314.426L69.7847 315.307C69.4556 317.543 69.1861 319.807 68.752 322.028L68.6293 322.633C68.3972 323.734 68.2545 325.287 67.7925 326.577C79.6791 323.256 91.584 320.012 103.511 316.825C112.132 314.521 120.762 312.252 129.388 309.968C129.843 309.146 130.41 308.379 131.117 307.693C133.448 305.433 136.536 304.425 139.369 306.165C139.599 306.307 139.618 306.668 139.369 306.805C138.826 307.102 138.282 307.406 137.748 307.724L142.928 306.319C146.799 305.268 150.717 303.956 154.679 303.223C161.978 299.616 169.828 297.006 177.516 294.426L178.422 294.119C182.359 292.775 186.43 291.27 190.498 290.525C193.475 289.98 196.97 290.638 198.168 293.693C199.684 294.693 201.11 295.869 202.486 297.025C203.481 297.86 204.435 298.749 205.405 299.614L205.584 299.771C206.377 300.46 207.005 300.921 207.2 302.018C207.3 302.584 206.941 303.35 206.243 303.275C204.108 303.046 202.372 300.568 200.925 299.089C199.806 297.945 198.679 296.763 197.658 295.506C197.063 295.83 196.247 295.772 195.869 295.054C193.904 291.329 188.523 293.91 185.546 294.793L181.281 296.057C179.149 296.69 177.017 297.326 174.89 297.973C169.041 299.752 163.222 301.742 157.32 303.375C157.848 303.957 157.776 304.99 156.773 305.384C152.153 307.199 147.086 308.137 142.287 309.383C139.257 310.17 136.229 310.961 133.201 311.758C132.682 312.6 132.309 313.552 132.152 314.661C131.574 318.738 132.688 323.442 133.774 327.386L133.937 327.974C134.829 331.144 136.142 335.031 138.873 337.033C139.54 337.521 140.389 337.861 141.245 337.938C146.592 335.182 151.939 332.426 157.289 329.675C158.28 329.165 159.196 329.855 159.418 330.676C161.305 330.366 163.187 329.877 164.901 329.295C167.781 328.315 170.03 326.447 172.731 325.155C177.955 322.655 183.291 325.726 187.969 328.06L189.047 328.59C191.145 329.609 195.509 331.568 196.516 328.78C197.489 326.083 194.411 323.201 192.424 321.987C190.054 320.54 187.295 319.765 184.617 319.12C183.088 318.752 181.54 318.451 179.983 318.232C178.217 317.983 176.392 318.02 174.692 317.446C173.846 317.162 173.717 315.818 174.692 315.596C177.309 314.999 180.434 315.65 183.166 316.315L184.594 316.667C187.346 317.344 190.125 318.192 192.632 319.542C194.455 320.523 196.379 322.014 197.635 323.838C198.727 322.823 200.085 322.857 201.501 323.234L202.269 323.448C203.537 323.8 204.565 324.042 205.799 323.798C205.964 322.899 206.131 322 206.31 321.1C208.069 312.259 209.998 303.451 212.126 294.691C215.797 279.58 220.044 264.635 224.833 249.843L225.314 248.365C226.418 244.981 227.307 241.295 229.088 238.187C230.772 235.248 233.47 233.555 236.676 232.659C240.314 231.641 244.136 231.109 247.847 230.422C248.675 230.269 249.505 230.123 250.334 229.973C249.634 228.707 249.111 227.27 248.64 226.167L248.558 225.976C247.546 223.667 246.638 221.316 245.76 218.952L245.104 217.176C243.52 212.897 241.885 208.689 239.657 204.688C237.313 200.477 234.202 197.034 230.325 194.184C222.42 188.374 212.892 185.41 205.225 179.2C204.911 178.946 205.313 178.511 205.632 178.672C210.809 181.277 216.398 183.048 221.783 185.169L222.845 185.589C227.102 187.278 231.424 189.117 235.108 191.853C239.215 194.903 242.45 198.691 244.881 203.196C247.277 207.637 248.81 212.607 250.5 217.35L250.952 218.613C251.634 220.508 252.339 222.398 253.146 224.242C253.786 225.706 254.982 227.377 255.525 229.05C257.012 228.792 258.499 228.533 259.987 228.284C292.222 222.894 324.818 219.728 357.486 218.801C358.764 218.765 359.425 219.986 359.236 221.103C356.101 239.666 353.315 258.294 350.258 276.872C348.924 284.98 347.563 293.082 346.17 301.18C345.465 305.283 344.649 309.37 343.981 313.479C343.441 316.797 343.05 320.141 342.124 323.383C341.293 326.289 340.018 329.091 337.924 331.309C335.667 333.699 332.517 334.856 329.346 335.402C321.297 336.79 313.04 337.356 304.925 338.28L261.721 343.202C262.352 348.949 262.399 354.606 262.11 360.42L261.945 363.594C261.81 366.146 261.648 368.703 261.282 371.229C260.823 374.399 259.375 377.082 257.243 379.449C255.285 381.623 252.906 383.478 250.592 385.255C248.19 387.101 245.708 388.882 242.884 390.023L242.518 390.169C240.04 391.138 235.393 392.638 232.006 392.09C232.449 394.31 233.305 396.698 232.546 398.896C232.194 399.917 230.861 400.426 230.045 399.557C228.427 397.836 228.301 395.563 227.918 393.318C227.52 390.982 227.176 388.638 226.871 386.287C226.28 381.743 225.821 377.157 225.68 372.575C225.536 367.868 225.592 363.156 225.845 358.454C225.975 356.04 226.137 353.628 226.443 351.229C226.573 350.206 226.707 349.182 226.859 348.162C226.915 347.789 226.976 347.419 227.043 347.049L223.165 347.488C217.219 348.152 211.27 348.753 205.282 348.846C204.573 348.857 204.027 348.533 203.671 348.062C203.291 348.682 202.629 349.125 201.682 349.122C193.32 349.09 185.532 346.352 177.926 343.125C174.093 341.498 170.318 339.737 166.479 338.123C162.895 336.618 159.064 335.543 155.566 333.847L146.377 338.674C146.309 338.911 146.223 339.136 146.131 339.324C145.532 340.547 144.353 341.21 143.148 341.71C141.991 342.191 140.794 342.34 139.627 342.219C132.657 345.876 125.686 349.53 118.71 353.175L111.733 356.818C97.8307 364.066 83.9838 371.433 69.9945 378.511L68.9646 379.03C64.1327 381.457 58.9441 383.916 53.5818 385.751C53.4864 387.11 53.5467 388.432 53.6604 389.871L53.6878 390.184C53.8477 391.884 54.1905 394.014 52.8286 395.225C52.1201 395.854 50.8547 395.856 50.3729 394.907C49.4988 393.187 50.2836 390.474 50.5605 388.604C50.6588 387.939 50.7786 387.255 50.9558 386.592C44.8084 388.425 38.4748 389.314 32.2191 388.285C26.1284 387.283 21.4111 383.441 17.6082 378.741C13.5947 373.782 10.7426 368.002 9.21243 361.806C7.47094 354.756 7.35723 347.475 7.39812 340.253C7.44152 332.563 7.72562 324.835 8.65967 317.196C7.6363 316.955 6.50137 316.747 5.46724 316.819C4.95501 317.64 3.96142 317.985 3.06359 317.879C1.11118 320.035 6.0634 322.238 7.64598 322.79C8.19551 322.982 8.13669 323.876 7.50286 323.849L7.10362 323.83C4.65823 323.699 2.13181 323.281 0.694014 321.006C-0.458131 319.182 -0.111984 317.021 1.26148 315.533C2.16863 306.944 4.33733 298.58 6.35574 290.201C8.33648 281.978 10.5393 273.806 12.874 265.677L13.9207 262.038C17.5968 249.291 21.4392 236.44 26.51 224.199C29.0421 218.087 31.959 212.087 35.913 206.758C39.5986 201.79 43.95 197.539 48.9517 193.908C58.2762 187.139 69.2174 183.048 79.9676 179.151L80.4489 178.977C86.0198 176.959 91.5772 174.917 97.0846 172.731C101.955 170.797 106.622 168.345 111.47 166.383C111.312 166.096 111.16 165.807 111.014 165.514L110.924 165.59C110.909 165.602 110.893 165.614 110.877 165.625C110.389 165.963 109.671 165.797 109.27 165.417C108.135 164.345 108.519 163.156 109.277 162.044L109.375 161.902C110.301 160.603 111.127 159.23 111.982 157.883L112.517 157.041C113.952 154.792 115.46 152.528 117.373 150.669C118.259 149.808 119.229 149.163 120.257 148.683C120.169 148.497 120.939 148.117 121.158 148.308C124.414 147.115 128.16 147.365 131.709 147.694M259.63 343.44L255.104 343.956C250.123 344.523 245.141 345.072 240.158 345.615L229.336 346.793C229.308 347.411 229.233 348.015 229.219 348.482C229.149 350.887 229.096 353.294 229.046 355.7C228.946 360.523 229.056 365.351 229.373 370.165C229.68 374.83 230.085 379.495 230.714 384.128L230.843 385.055L230.917 385.542C231.431 385.591 231.935 385.836 232.354 386.337C233.27 387.432 236.585 386.368 237.879 385.907C240.008 385.148 242.013 383.866 243.863 382.581C245.669 381.326 247.296 379.863 248.859 378.321L250.138 377.055C251.41 375.789 252.684 374.44 253.463 372.848C254.52 370.688 254.657 368.037 254.967 365.685C255.349 362.792 255.803 359.9 256.283 357.021M128.219 313.073L127.749 313.196C110.693 317.735 93.6616 322.407 76.5527 326.745C68.0859 328.893 59.579 330.884 51.1018 332.99L49.7293 333.333C43.0417 335.026 36.2739 337.063 31.1527 341.92C30.9636 342.099 30.6892 341.825 30.8672 341.635C36.3865 335.751 44.2363 333.26 51.7733 331.101C53.1665 330.702 54.5615 330.312 55.955 329.915C45.7048 326.256 35.2928 323.073 24.6405 320.802C21.8975 320.217 19.1226 319.788 16.3818 319.201C14.4703 318.791 12.6036 318.199 10.7123 317.708L9.22462 317.334L9.20487 322.042C9.18011 328.71 9.19193 335.374 9.53167 342.041L9.59598 343.276C9.99237 350.696 10.6111 358.271 13.2406 365.267C15.3774 370.952 18.7833 376.308 23.2372 380.45C25.491 382.545 27.914 384.176 30.9091 384.981C33.6901 385.729 36.6038 385.816 39.4627 385.617C53.1754 384.659 65.382 377.2 77.2937 371.024C96.7772 360.922 116.263 350.825 135.766 340.762C135.239 340.401 134.742 339.985 134.291 339.518C131.676 336.813 130.296 333.11 129.39 329.524C128.425 325.708 127.849 321.617 127.781 317.676M153.035 344.662C153.207 344.569 153.406 344.685 153.414 344.88C153.475 346.371 152.651 347.842 152.036 349.186L151.971 349.33C151.224 350.994 150.406 352.637 149.56 354.253C147.868 357.482 146.111 360.678 144.276 363.827C140.587 370.164 136.488 376.234 131.643 381.751C130.549 382.998 128.749 381.399 129.451 380.057C132.837 373.588 136.785 367.48 140.848 361.425C142.882 358.393 144.915 355.359 146.969 352.341C147.826 351.082 148.694 349.827 149.585 348.591L150.123 347.852M355.325 222.506C338.209 223.024 321.113 224.142 304.079 225.894C288.236 227.523 272.452 229.691 256.757 232.394C253.479 232.959 250.204 233.547 246.934 234.158L244.973 234.527C241.702 235.148 237.707 235.404 234.795 237.153C231.725 238.998 230.895 242.853 229.873 246.032C228.672 249.77 227.502 253.52 226.363 257.278C221.841 272.2 217.709 287.252 214.024 302.403C212.195 309.923 210.572 317.486 208.861 325.034C207.342 331.74 205.665 338.37 203.914 345.01C204.13 344.841 204.394 344.714 204.714 344.645C213.412 342.792 222.29 341.987 231.118 340.963L231.972 340.863C241.104 339.788 250.236 338.72 259.374 337.692L319.872 330.879C323.44 330.477 327.262 330.422 330.734 329.464C336.638 327.833 338.022 321.224 339.012 315.96L339.042 315.801C342.028 299.898 344.405 283.857 347.19 267.914M205.322 326.523C202.973 326.368 199.758 324.214 197.976 324.368C198.912 325.94 199.334 327.733 198.795 329.647C197.294 334.975 190.509 332.218 187.24 330.591C184.561 329.256 181.973 327.622 179.006 326.997C175.645 326.289 173.368 327.628 170.529 329.17C168.196 330.437 165.656 331.347 163.044 331.818C161.655 332.069 160.336 332.095 159.019 331.998C158.94 332.062 158.851 332.122 158.749 332.176L158.052 332.542C161.202 332.686 164.41 333.66 167.341 334.551C170.379 335.474 173.361 336.587 176.327 337.725L179.245 338.848C186.442 341.608 193.893 344.229 201.682 344.206C202.242 344.204 202.701 344.359 203.062 344.613M192.18 309.83C194.501 309.545 196.643 309.85 198.497 311.363C200.733 313.187 202.235 316.212 205.45 316.41C206.387 316.468 206.605 317.788 205.673 318.064C203.28 318.773 201.343 317.477 199.713 315.794L198.617 314.647C197.006 312.976 195.52 311.685 192.786 311.785C189.858 311.892 186.926 312.569 184.017 312.914C180.722 313.304 177.427 313.636 174.122 313.923C173.969 313.937 173.942 313.695 174.086 313.659L177.788 312.736M189.941 300.33L190.323 300.292C193.693 299.964 196.774 299.951 199.784 301.767L200.361 302.116C203.074 303.767 206.027 305.713 207.724 308.387C208.002 308.824 207.543 309.339 207.078 309.228C203.817 308.444 201.433 306.048 198.691 304.255C195.613 302.243 192.434 302.575 188.925 302.887C185.528 303.19 182.132 303.606 178.767 304.173C175.606 304.706 172.435 305.546 169.242 305.814L169.243 305.808C168.878 305.807 168.67 305.258 169.042 305.072C172.282 303.452 176.035 302.685 179.56 301.945M292.301 266.98C291.975 265.42 293.892 264.697 294.78 265.934L294.969 266.195C296.887 268.828 299.662 272.131 299.521 275.479C301.208 275.516 302.956 276.542 303.613 278.066C303.917 278.771 304.02 279.606 303.953 280.471C305.486 280.591 307.158 281.599 308.095 282.58C309.649 284.207 309.772 286.506 308.657 288.407C306.227 292.55 300.919 294.057 296.437 294.394L296.278 294.406C291.649 294.726 284.979 294.639 281.805 290.663C278.744 286.827 282.128 283.721 285.597 282.035C284.694 281.209 284.226 280.025 284.666 278.776C285.438 276.581 288.165 275.733 289.705 274.207C291.584 272.346 292.825 269.794 292.33 267.126M294.845 270.354C294.335 272.575 293.08 274.606 291.334 276.216C290.666 276.832 289.935 277.38 289.159 277.851L289.066 277.905C288.377 278.293 286.684 279.018 286.814 279.887C286.948 280.78 289.707 282.178 290.459 282.178C290.63 282.178 290.727 282.446 290.552 282.524C289.189 283.126 287.999 283.385 286.667 282.748C285.776 283.658 284.911 284.6 284.055 285.533C282.54 287.185 283.058 288.93 284.848 290.159C287.724 292.136 292.096 292.088 295.452 291.944C298.829 291.8 302.44 291.045 305.078 288.792L305.193 288.692C306.627 287.415 307.936 285.251 305.74 284.021C304.881 283.54 303.952 283.568 303.135 283.334C302.371 284.834 301.132 286.035 299.62 286.266C298.397 286.454 297.556 284.915 298.667 284.18L298.917 284.024C300.313 283.132 301.505 281.758 301.473 279.968C301.451 278.725 299.719 277.156 298.59 278.324L298.538 278.379C297.594 279.446 295.93 278.102 296.552 276.921L296.581 276.867M74.5602 208.579C74.556 208.312 74.9309 208.212 75.0618 208.443C77.2542 212.305 78.4002 217.04 79.5681 221.295C80.7913 225.753 81.7788 230.256 82.6659 234.792C84.4626 243.977 85.42 253.109 85.485 262.471C85.4939 263.807 83.3194 264.163 83.1067 262.793C81.6945 253.687 80.3415 244.572 78.9185 235.468C78.2026 230.89 77.3693 226.328 76.5719 221.763M96.2646 215.306C96.1031 214.773 96.8772 214.595 97.0752 215.082C101.475 225.898 102.965 238.154 100.14 249.564C99.7081 251.309 97.1552 250.553 97.4813 248.83M153.017 205.696C152.995 205.298 153.512 205.235 153.707 205.509C155.791 208.451 156.656 212.39 160.314 213.91C162.14 214.669 164.195 214.537 165.808 215.819C166.887 216.676 167.714 218.03 166.905 219.328C166.643 219.748 165.912 219.958 165.558 219.502C165.041 218.838 164.767 218.043 164.064 217.545C163.073 216.843 161.737 216.799 160.6 216.469C159.13 216.042 157.835 215.295 156.774 214.186M187.846 156.635C188.061 156.526 188.267 156.596 188.405 156.782C188.601 157.047 188.577 157.305 188.337 157.487C188.658 158.144 189.037 159.789 189.091 160.029C189.311 161 189.544 161.966 189.788 162.931C190.281 164.876 190.713 166.837 191.206 168.784C191.729 170.847 192.352 172.888 193.046 174.9C193.09 175.031 193.14 175.164 193.191 175.298L193.27 175.502L193.29 175.471C193.431 175.248 193.724 175.404 193.689 175.64C193.657 175.855 193.613 176.068 193.577 176.283L193.65 176.476C194.103 177.698 194.414 178.985 193.582 180.064C193.27 180.467 192.928 180.706 192.501 180.777C191.816 183.037 190.958 185.254 190.038 187.384L189.769 188.005C188.417 191.113 186.974 194.179 184.821 196.824C182.47 199.712 179.236 201.684 177.189 204.849C176.236 206.321 175.573 207.868 175.035 209.531L174.833 210.162C174.451 211.338 174.01 212.477 172.909 213.167C172.557 213.387 172.03 213.317 171.747 213.017C169.488 210.624 171.853 206.156 173.215 203.84C175.108 200.619 177.848 198.558 180.592 196.128C183.549 193.508 185.436 190.004 187.261 186.551C188.378 184.436 189.457 182.276 190.593 180.151C189.406 179.101 189.026 177.014 188.624 175.564L188.588 175.434C187.923 173.111 187.395 170.729 187.061 168.335C186.74 166.034 186.607 163.766 186.691 161.452L186.716 160.862M192.259 167.588C191.997 167.228 192.431 166.82 192.791 166.895C194.978 167.348 197.117 168.674 199.08 169.746L199.29 169.86C200.857 170.707 202.434 171.743 203.257 173.387C204.152 175.174 204.078 177.232 203.956 179.174L203.944 179.356C203.795 181.684 203.771 184.104 203.278 186.391C203.027 187.561 201.968 187.891 201.063 187.614C199.986 191.019 196.961 193.528 194.752 196.214C191.935 199.64 192.465 204.264 192.759 208.39C192.878 210.06 190.804 210.535 189.735 209.644L187.272 207.596C186.862 207.254 186.453 206.911 186.044 206.567C185.694 206.272 185.348 205.975 185.004 205.675L184.49 205.221C184.263 205.017 183.258 203.893 182.964 203.846C182.253 203.733 180.562 205.611 179.983 206.2L179.91 206.273C178.821 207.342 177.837 208.493 176.921 209.713C176.752 209.937 176.423 209.751 176.543 209.492C177.364 207.731 178.319 206.046 179.453 204.47L179.682 204.156C180.436 203.138 181.449 201.341 182.78 201.04C184.406 200.673 186.03 202.306 187.213 203.212L187.288 203.269C187.85 203.692 188.407 204.122 188.962 204.555C188.904 201.484 189.291 198.38 190.875 195.733C191.992 193.867 193.665 192.484 195.096 190.88C196.69 189.094 197.522 186.898 198.965 185.038C199.15 184.799 199.407 184.67 199.684 184.629C199.739 183.133 199.959 181.623 200.129 180.143L200.179 179.701C200.35 178.093 200.756 176.13 199.97 174.624C199.228 173.202 197.525 172.199 196.263 171.234L195.233 170.434M121.267 150.591C120.609 150.973 119.993 151.447 119.435 152.04C117.677 153.908 116.42 156.232 115.196 158.467C114.538 159.671 113.903 160.889 113.239 162.09C112.95 162.613 112.653 163.129 112.353 163.646C112.214 163.883 111.802 164.356 111.597 164.647C111.824 164.966 112.059 165.28 112.299 165.591C112.39 165.709 118.697 172.588 120.895 175.281C124.261 179.404 127.27 183.76 129.842 188.423C132.361 192.989 134.278 197.823 136.612 202.477C137.78 204.807 139.084 207.121 140.746 209.137C140.811 209.216 140.878 209.29 140.944 209.368C141.579 207.651 143.204 205.813 144.003 204.758L144.078 204.658C145.889 202.214 147.801 199.843 149.755 197.512C151.54 195.383 153.371 193.301 155.245 191.253L155.95 190.487C157.256 189.074 158.915 186.96 160.827 185.951C160.622 185.585 160.385 185.223 160.113 184.866C158.321 182.522 155.789 180.821 153.29 179.286L151.67 178.299C145.562 174.572 139.549 170.671 134.247 165.829C131.441 163.266 128.675 160.582 126.317 157.593L125.483 156.536M131.459 148.746C128.598 148.986 125.509 148.929 122.866 149.862C125.216 152.087 127.45 154.489 129.744 156.751C129.948 155.221 130.366 153.71 130.72 152.218" fill="black"/>
<path fill-rule="evenodd" clip-rule="evenodd" d="M160.713 7.2774C181.08 7.2774 202.146 23.0865 209.612 33.1747C215.889 41.6564 219.269 80.0102 219.269 105.93C219.269 111.351 222.256 121.57 221.384 126.755C218.19 145.757 204.271 161.692 176.723 161.692C149.176 161.692 129.425 150.758 108.949 121.4C99.0142 121.4 94.1994 113.77 94.1285 101.731C94.0826 93.7039 97.2794 88.2304 103.719 85.3101C101.423 53.6337 103.166 33.6719 108.949 25.4249C117.623 13.0543 140.345 7.2774 160.713 7.2774Z" fill="white"/>
<path fill-rule="evenodd" clip-rule="evenodd" d="M152.142 0.559047C165.001 -0.744848 177.602 0.350711 190.275 2.61762C191.243 2.79327 191.792 3.42941 191.996 4.19415C197.965 4.46714 203.941 4.90572 209.903 5.2326C212.066 5.35113 213.292 7.4916 212.306 9.42446C212.109 9.80844 211.904 10.182 211.696 10.5556L211.958 10.4693C213.751 9.89318 215.688 9.60915 217.435 10.5236C219.659 11.6874 220.531 14.2553 220.04 16.6189C219.914 17.2223 219.703 17.8006 219.462 18.3649C219.95 18.3326 220.442 18.3434 220.929 18.408C223.526 18.7529 225.456 20.7464 225.593 23.4009C225.793 27.4092 223.214 31.4757 220.176 34.3454C220.617 35.2545 220.786 36.3249 220.603 37.4097C220.237 39.5541 218.659 40.8383 216.831 41.6759C217.593 44.1009 217.954 46.6361 217.741 49.227C217.67 50.092 216.915 50.8064 216.117 50.9817C219.089 59.1765 220.594 67.9747 221.676 76.5478C222.447 82.6473 222.827 88.7825 222.873 94.928C222.896 97.7026 222.85 100.48 222.734 103.255L222.687 104.296C222.544 107.296 222.536 110.445 221.998 113.413C223.835 116.541 224.574 120.424 224.886 123.93C225.273 128.269 224.66 132.745 223.293 136.872C218.135 152.468 202.568 162.31 186.932 164.868C172.458 167.235 155.711 164.049 147.252 150.884C147.12 150.676 147.403 150.504 147.568 150.64C153.619 155.568 160.639 157.766 168.265 158.837C181.451 160.683 196.272 157.551 206.854 149.247C211.933 145.259 215.595 139.455 217.206 133.208C218.028 130.015 218.311 126.685 217.988 123.399C217.658 120.065 216.184 117.22 215.255 114.07C214.943 113.007 215.273 112.019 215.922 111.315C216.105 108.757 216.535 106.178 216.7 103.628C216.883 100.729 216.995 97.8304 217.034 94.928C217.109 88.9078 216.858 82.8769 216.352 76.8822C215.427 65.9047 212.97 55.1937 211.528 44.3096C210.994 44.7891 210.229 44.986 209.427 44.5671L209.343 44.5215L208.906 44.2704C208.881 44.2704 208.852 44.274 208.827 44.2773C205.832 44.5686 202.725 44.1519 199.856 43.2571C196.853 42.3236 194.066 40.8868 191.577 38.9722C191.104 41.3749 190.906 43.8031 190.903 46.2529C190.899 47.783 189.281 48.5772 187.997 47.9235C182.305 45.028 176.867 41.6914 171.705 37.9413C171.102 41.034 170.5 44.1264 169.893 47.2227C169.66 48.4156 168.143 48.8969 167.171 48.3294C163.304 46.0769 159.965 43.1282 157.246 39.622C156.703 40.6615 156.159 41.7009 155.61 42.738L154.785 44.2916C153.971 45.8182 152.88 47.5068 151.098 47.995C149.211 48.5122 147.636 47.2877 147.001 45.5776C146.808 45.0463 146.628 44.5 146.463 43.9504C144.856 47.6254 143.041 51.2174 140.99 54.6441C137.912 59.7839 134.217 64.3637 130.533 69.062C129.414 70.4884 127.499 69.1267 127.345 67.7405C127.255 66.9252 127.18 66.1062 127.115 65.2904C124.968 69.6281 122.728 73.9252 120.288 78.0977L120.638 79.4688C121.645 83.5198 122.481 87.5996 123.39 91.6722C123.683 92.9862 122.986 94.8648 121.453 95.0886C119.621 95.3558 117.888 96.293 116.012 95.6482C113.967 94.9449 113.562 93.1744 112.597 91.4962C112.404 91.1618 112.18 90.8547 111.939 90.563L111.877 90.6428C111.727 90.8407 111.368 90.6252 111.458 90.3989L111.563 90.1374C110.733 89.2555 109.74 88.5199 108.827 87.7286C106.658 87.3625 104.218 87.7634 102.723 88.646C99.319 90.6571 97.7554 94.8023 97.7231 98.6138C97.6837 103.075 99.0643 108.089 101.396 111.904C102.422 113.582 103.828 115.097 105.686 115.841C107.53 116.581 109.528 116.351 111.404 117.048C112.645 117.511 113.409 118.891 112.659 120.14C112.609 120.227 112.552 120.305 112.498 120.388L113.056 121.13C113.439 121.644 113.84 122.194 114.213 122.766C115.167 123.866 116.171 124.925 117.143 126.006C118.94 128 120.684 130.047 122.452 132.069C124.12 133.977 125.885 135.769 127.703 137.533C129.421 139.203 131.567 140.607 133.145 142.389C134.68 144.128 135.096 147.163 132.571 148.169C129.776 149.285 127.303 146.67 125.422 144.926L125.343 144.853C121.895 141.676 118.782 138.045 116.309 134.048C113.86 135.717 110.317 135.877 107.879 134.208C106.595 133.329 105.611 131.853 105.132 130.248C104.681 130.349 104.23 130.408 103.79 130.402C103.564 130.533 103.337 130.661 103.107 130.78C101.288 131.728 99.0539 131.305 98.2217 129.289C97.4639 127.459 98.2448 125.382 98.9274 123.619L99.0683 123.255C99.4557 122.249 99.8825 121.154 100.413 120.123C98.9356 119.009 97.6726 117.626 96.604 116.053C93.0134 110.755 91.2199 103.006 92.0126 96.6849C92.4897 92.8702 94.2793 88.919 97.2098 86.3467L97.1026 86.0666C96.2812 83.98 95.5347 81.8855 95.0508 79.6803C94.4841 77.1013 94.2075 74.4288 93.9568 71.8031C93.4259 66.257 93.5694 60.5853 94.276 55.0608C95.6032 44.662 98.9678 34.4535 104.94 25.8004C103.247 23.7705 101.906 21.3819 102.605 18.6343C102.924 17.3732 103.652 16.1774 104.75 15.4551C105.356 15.0567 106.077 14.9956 106.683 14.6652L106.866 14.5647C107.132 14.4091 106.928 14.4256 106.77 13.7025C106.142 10.8142 106.662 8.02358 109.836 7.06452C112.824 6.16292 115.651 8.07746 117.419 10.3584C122.047 7.07134 128.145 5.35113 133.507 3.88919C139.605 2.23292 145.86 1.19878 152.142 0.559047ZM102.16 97.4353C102.139 95.0826 104.366 93.6314 106.558 94.0161C108.03 94.2726 109.258 95.1523 110.411 96.0615L110.973 96.5068C112.377 97.6106 113.989 98.8006 114.826 100.363C116.053 102.669 113.459 105.772 111.038 104.156C109.377 103.041 108.313 101.255 107.223 99.5964L107.11 99.4253C106.615 98.6818 106.181 97.8915 105.503 97.2952L105.357 97.1668C105.134 96.9765 104.894 96.8028 104.606 96.7205C104.051 96.5606 103.022 96.7846 102.777 97.4467L102.755 97.5144C102.666 97.8488 102.164 97.7766 102.16 97.4353Z" fill="black"/>
<path fill-rule="evenodd" clip-rule="evenodd" d="M195.087 130.001C192.653 130.959 189.776 131.186 187.264 130.369C184.861 129.588 182.679 127.85 181.359 125.664C180.183 123.717 179.692 121.407 180.387 119.104C180.42 118.993 180.528 118.923 180.632 118.895C181.201 119.414 181.552 119.928 181.903 120.441C182.494 121.304 183.087 122.159 183.901 122.897C185.086 123.972 186.681 124.844 188.265 125.132C189.815 125.414 191.402 125.165 192.791 124.421C193.635 123.97 194.318 123.366 194.994 122.759C195.73 122.099 196.454 121.428 197.468 121.055C198.28 120.756 199.134 121.008 199.789 121.509C200.494 122.046 201.001 122.887 200.973 123.767C200.929 125.13 200.333 126.267 199.469 127.205C198.3 128.473 196.648 129.386 195.087 130.001ZM192.197 96.0384C194.905 97.6871 199.033 101.532 196.119 105.619C192.689 109.223 187.75 105.091 185.317 103.222C183.06 101.774 180.525 105.499 182.619 107.19C200.203 120.227 207.34 96.4695 193.567 94.0999C192.05 93.8388 191.487 95.5283 192.197 96.0384ZM163.707 73.1937C167.398 73.017 170.652 74.6772 174.17 75.4315C177.421 76.1291 180.624 75.7103 183.786 74.823C188.918 73.383 191.039 81.2495 185.978 82.7825C182.292 83.8989 178.41 83.9765 174.628 83.4011C171.268 82.8896 168.451 81.2516 165.248 80.298C162.499 79.4799 159.264 79.8199 156.361 80.205L155.234 80.3569C153.559 80.5828 151.875 80.8095 150.216 81.1374C148.777 81.4222 147.34 81.9434 145.872 82.0038C145.705 82.011 145.563 81.794 145.669 81.6493C147.375 79.3035 150.663 77.4526 153.279 76.218L153.457 76.1348C156.686 74.6273 160.111 73.3654 163.707 73.1937ZM162.354 90.4912L162.354 90.4102C162.359 88.1197 163.691 82.8899 166.984 82.8899C169.041 82.8899 170.29 86.4491 170.506 90.1182L170.513 90.2678C170.609 92.5489 169.984 97.535 166.984 97.535C163.952 97.535 162.385 92.8126 162.354 90.4912ZM210.834 90.4912L210.835 90.4102C210.83 88.1197 209.497 82.8899 206.205 82.8899C204.199 82.8899 202.961 86.2734 202.7 89.8433L202.682 90.1182C202.552 92.3223 203.137 97.535 206.205 97.535C209.236 97.535 210.803 92.8126 210.834 90.4912ZM210.784 70.4039L211.019 70.4091C214.867 70.5427 218.826 72.8254 219.853 76.6599C219.906 76.8589 219.661 76.9928 219.516 76.8564C216.352 73.8898 212.096 76.7244 208.928 78.2102L207.764 78.7486C203.679 80.6515 199.034 82.8888 194.499 81.4706C192.345 80.7971 190.977 78.5809 191.591 76.3423C192.138 74.3506 194.538 72.6767 196.618 73.3956L196.712 73.4299C198.402 74.0771 200.479 73.4214 202.224 72.775L203.657 72.236C205.962 71.3602 208.277 70.3803 210.784 70.4039Z" fill="black"/>
</svg>
